<mxfile modified="2019-11-21T10:47:46.352Z" host="www.draw.io" agent="Mozilla/5.0 (Macintosh; Intel Mac OS X 10_14_6) AppleWebKit/605.1.15 (KHTML, like Gecko) Version/13.0.2 Safari/605.1.15" etag="Z7ekgoE1eXBqPGHaR9SW" version="12.2.7" type="github" pages="1">
  <diagram id="WIEtUlI_L1v1tH11AKhi" name="第 1 页">
    <mxGraphModel dx="1864" dy="1138" grid="0" gridSize="10" guides="1" tooltips="1" connect="1" arrows="1" fold="1" page="1" pageScale="1" pageWidth="3300" pageHeight="4681" math="0" shadow="0">
      <root>
        <mxCell id="0"/>
        <mxCell id="1" parent="0"/>
        <mxCell id="Eo95rkR2elM9zv1yrzYy-1" value="" style="rounded=1;whiteSpace=wrap;html=1;fillColor=#fff2cc;strokeColor=#d6b656;" parent="1" vertex="1">
          <mxGeometry x="122" y="73" width="718" height="70" as="geometry"/>
        </mxCell>
        <mxCell id="Eo95rkR2elM9zv1yrzYy-2" value="应用层" style="text;html=1;strokeColor=none;fillColor=none;align=center;verticalAlign=middle;whiteSpace=wrap;rounded=0;fontSize=18;" parent="1" vertex="1">
          <mxGeometry x="51" y="98" width="81" height="20" as="geometry"/>
        </mxCell>
        <mxCell id="Eo95rkR2elM9zv1yrzYy-4" value="接口层" style="text;html=1;strokeColor=none;fillColor=none;align=center;verticalAlign=middle;whiteSpace=wrap;rounded=0;fontSize=18;" parent="1" vertex="1">
          <mxGeometry x="51" y="177" width="81" height="20" as="geometry"/>
        </mxCell>
        <mxCell id="Eo95rkR2elM9zv1yrzYy-5" value="" style="rounded=1;whiteSpace=wrap;html=1;fillColor=#fff2cc;strokeColor=#d6b656;" parent="1" vertex="1">
          <mxGeometry x="122" y="152" width="718" height="70" as="geometry"/>
        </mxCell>
        <mxCell id="Eo95rkR2elM9zv1yrzYy-6" value="SDK&amp;amp;API" style="rounded=1;whiteSpace=wrap;html=1;fontSize=18;" parent="1" vertex="1">
          <mxGeometry x="146" y="168" width="205" height="39" as="geometry"/>
        </mxCell>
        <mxCell id="Eo95rkR2elM9zv1yrzYy-7" value="区块链代理" style="rounded=1;whiteSpace=wrap;html=1;fontSize=18;" parent="1" vertex="1">
          <mxGeometry x="379.5" y="167.5" width="189" height="39" as="geometry"/>
        </mxCell>
        <mxCell id="Eo95rkR2elM9zv1yrzYy-8" value="平台Web管理端" style="rounded=1;whiteSpace=wrap;html=1;fontSize=18;" parent="1" vertex="1">
          <mxGeometry x="597" y="168" width="225" height="39" as="geometry"/>
        </mxCell>
        <mxCell id="Eo95rkR2elM9zv1yrzYy-9" value="U链福费廷业务系统" style="rounded=1;whiteSpace=wrap;html=1;fontSize=18;fillColor=#dae8fc;strokeColor=#6c8ebf;" parent="1" vertex="1">
          <mxGeometry x="146" y="89" width="184" height="39" as="geometry"/>
        </mxCell>
        <mxCell id="Eo95rkR2elM9zv1yrzYy-10" value="U链托管业务系统" style="rounded=1;whiteSpace=wrap;html=1;fontSize=18;fillColor=#dae8fc;strokeColor=#6c8ebf;" parent="1" vertex="1">
          <mxGeometry x="397.5" y="89" width="185" height="39" as="geometry"/>
        </mxCell>
        <mxCell id="Eo95rkR2elM9zv1yrzYy-13" value="..." style="rounded=1;whiteSpace=wrap;html=1;fontSize=18;" parent="1" vertex="1">
          <mxGeometry x="647" y="89" width="169" height="39" as="geometry"/>
        </mxCell>
        <mxCell id="Eo95rkR2elM9zv1yrzYy-14" value="" style="rounded=1;whiteSpace=wrap;html=1;fontSize=18;fillColor=#f5f5f5;strokeColor=#666666;glass=0;shadow=0;comic=0;arcSize=12;fillOpacity=50;fontColor=#333333;" parent="1" vertex="1">
          <mxGeometry x="122" y="231" width="718" height="306" as="geometry"/>
        </mxCell>
        <mxCell id="Eo95rkR2elM9zv1yrzYy-15" value="服务层" style="text;html=1;strokeColor=none;fillColor=none;align=center;verticalAlign=middle;whiteSpace=wrap;rounded=0;fontSize=18;" parent="1" vertex="1">
          <mxGeometry x="51" y="350" width="81" height="20" as="geometry"/>
        </mxCell>
        <mxCell id="Eo95rkR2elM9zv1yrzYy-17" value="&lt;br&gt;&lt;br&gt;&lt;br&gt;&lt;br&gt;&lt;br&gt;链管理服务&lt;br&gt;" style="rounded=0;whiteSpace=wrap;html=1;shadow=0;glass=0;comic=0;fontSize=18;fillColor=#b0e3e6;strokeColor=#0e8088;" parent="1" vertex="1">
          <mxGeometry x="138" y="253" width="380" height="145" as="geometry"/>
        </mxCell>
        <mxCell id="Eo95rkR2elM9zv1yrzYy-18" value="网络管理" style="rounded=1;whiteSpace=wrap;html=1;shadow=0;glass=0;comic=0;fontSize=18;" parent="1" vertex="1">
          <mxGeometry x="148" y="263" width="103" height="27" as="geometry"/>
        </mxCell>
        <mxCell id="Eo95rkR2elM9zv1yrzYy-19" value="通道管理" style="rounded=1;whiteSpace=wrap;html=1;shadow=0;glass=0;comic=0;fontSize=18;" parent="1" vertex="1">
          <mxGeometry x="261" y="263" width="103" height="27" as="geometry"/>
        </mxCell>
        <mxCell id="Eo95rkR2elM9zv1yrzYy-22" value="合约管理" style="rounded=1;whiteSpace=wrap;html=1;shadow=0;glass=0;comic=0;fontSize=18;" parent="1" vertex="1">
          <mxGeometry x="147.5" y="299.5" width="103" height="27" as="geometry"/>
        </mxCell>
        <mxCell id="Eo95rkR2elM9zv1yrzYy-23" value="合约市场" style="rounded=1;whiteSpace=wrap;html=1;shadow=0;glass=0;comic=0;fontSize=18;" parent="1" vertex="1">
          <mxGeometry x="261" y="299.5" width="103" height="27" as="geometry"/>
        </mxCell>
        <mxCell id="Eo95rkR2elM9zv1yrzYy-24" value="联盟动态管理" style="rounded=1;whiteSpace=wrap;html=1;shadow=0;glass=0;comic=0;fontSize=18;" parent="1" vertex="1">
          <mxGeometry x="382" y="263" width="126" height="27" as="geometry"/>
        </mxCell>
        <mxCell id="Eo95rkR2elM9zv1yrzYy-26" value="事件管理" style="rounded=1;whiteSpace=wrap;html=1;shadow=0;glass=0;comic=0;fontSize=18;" parent="1" vertex="1">
          <mxGeometry x="381.5" y="300" width="126" height="27" as="geometry"/>
        </mxCell>
        <mxCell id="Eo95rkR2elM9zv1yrzYy-27" value="&lt;br&gt;&lt;br&gt;&lt;br&gt;&lt;br&gt;&lt;br&gt;平台服务&lt;br&gt;" style="rounded=0;whiteSpace=wrap;html=1;shadow=0;glass=0;comic=0;fontSize=18;fillColor=#b0e3e6;strokeColor=#0e8088;" parent="1" vertex="1">
          <mxGeometry x="532" y="253" width="285" height="145" as="geometry"/>
        </mxCell>
        <mxCell id="Eo95rkR2elM9zv1yrzYy-25" value="组织成员管理" style="rounded=1;whiteSpace=wrap;html=1;shadow=0;glass=0;comic=0;fontSize=18;" parent="1" vertex="1">
          <mxGeometry x="381.5" y="337" width="126" height="27" as="geometry"/>
        </mxCell>
        <mxCell id="Eo95rkR2elM9zv1yrzYy-28" value="计费管理" style="rounded=1;whiteSpace=wrap;html=1;shadow=0;glass=0;comic=0;fontSize=18;" parent="1" vertex="1">
          <mxGeometry x="542.5" y="300" width="126" height="27" as="geometry"/>
        </mxCell>
        <mxCell id="Eo95rkR2elM9zv1yrzYy-29" value="告警管理" style="rounded=1;whiteSpace=wrap;html=1;shadow=0;glass=0;comic=0;fontSize=18;" parent="1" vertex="1">
          <mxGeometry x="679" y="263" width="126" height="27" as="geometry"/>
        </mxCell>
        <mxCell id="Eo95rkR2elM9zv1yrzYy-30" value="用户日志" style="rounded=1;whiteSpace=wrap;html=1;shadow=0;glass=0;comic=0;fontSize=18;" parent="1" vertex="1">
          <mxGeometry x="679" y="300" width="126" height="27" as="geometry"/>
        </mxCell>
        <mxCell id="Eo95rkR2elM9zv1yrzYy-31" value="系统监控" style="rounded=1;whiteSpace=wrap;html=1;shadow=0;glass=0;comic=0;fontSize=18;" parent="1" vertex="1">
          <mxGeometry x="542.5" y="337" width="126" height="27" as="geometry"/>
        </mxCell>
        <mxCell id="Eo95rkR2elM9zv1yrzYy-32" value="统计报表" style="rounded=1;whiteSpace=wrap;html=1;shadow=0;glass=0;comic=0;fontSize=18;" parent="1" vertex="1">
          <mxGeometry x="679" y="337" width="126" height="27" as="geometry"/>
        </mxCell>
        <mxCell id="Eo95rkR2elM9zv1yrzYy-33" value="&lt;br&gt;&lt;br&gt;&lt;br&gt;区块链服务&lt;br&gt;" style="rounded=0;whiteSpace=wrap;html=1;shadow=0;glass=0;comic=0;fontSize=18;fillColor=#b0e3e6;strokeColor=#0e8088;" parent="1" vertex="1">
          <mxGeometry x="531" y="416" width="285" height="109" as="geometry"/>
        </mxCell>
        <mxCell id="Eo95rkR2elM9zv1yrzYy-34" value="账本" style="rounded=1;whiteSpace=wrap;html=1;shadow=0;glass=0;comic=0;fontSize=18;fillColor=#FFFFFF;strokeColor=#000000;" parent="1" vertex="1">
          <mxGeometry x="541" y="424" width="121" height="27" as="geometry"/>
        </mxCell>
        <mxCell id="Eo95rkR2elM9zv1yrzYy-35" value="节点服务" style="rounded=1;whiteSpace=wrap;html=1;shadow=0;glass=0;comic=0;fontSize=18;fillColor=#FFFFFF;strokeColor=#000000;" parent="1" vertex="1">
          <mxGeometry x="679" y="424" width="126" height="27" as="geometry"/>
        </mxCell>
        <mxCell id="Eo95rkR2elM9zv1yrzYy-36" value="智能合约" style="rounded=1;whiteSpace=wrap;html=1;shadow=0;glass=0;comic=0;fontSize=18;fillColor=#FFFFFF;strokeColor=#000000;" parent="1" vertex="1">
          <mxGeometry x="541" y="461" width="121" height="27" as="geometry"/>
        </mxCell>
        <mxCell id="Eo95rkR2elM9zv1yrzYy-37" value="&lt;br&gt;&lt;br&gt;&lt;br&gt;&lt;br&gt;基础资源管理&lt;br&gt;" style="rounded=0;whiteSpace=wrap;html=1;shadow=0;glass=0;comic=0;fontSize=18;fillColor=#b0e3e6;strokeColor=#0e8088;" parent="1" vertex="1">
          <mxGeometry x="138" y="416" width="380" height="110" as="geometry"/>
        </mxCell>
        <mxCell id="Eo95rkR2elM9zv1yrzYy-38" value="共识管理" style="rounded=1;whiteSpace=wrap;html=1;shadow=0;glass=0;comic=0;fontSize=18;" parent="1" vertex="1">
          <mxGeometry x="148" y="336.5" width="103" height="27" as="geometry"/>
        </mxCell>
        <mxCell id="Eo95rkR2elM9zv1yrzYy-39" value="安全/证书" style="rounded=1;whiteSpace=wrap;html=1;shadow=0;glass=0;comic=0;fontSize=18;" parent="1" vertex="1">
          <mxGeometry x="261" y="336.5" width="103" height="27" as="geometry"/>
        </mxCell>
        <mxCell id="Eo95rkR2elM9zv1yrzYy-40" value="权限管理" style="rounded=1;whiteSpace=wrap;html=1;shadow=0;glass=0;comic=0;fontSize=18;" parent="1" vertex="1">
          <mxGeometry x="542.5" y="263" width="126" height="27" as="geometry"/>
        </mxCell>
        <mxCell id="Eo95rkR2elM9zv1yrzYy-41" value="主机接入" style="rounded=1;whiteSpace=wrap;html=1;shadow=0;glass=0;comic=0;fontSize=18;" parent="1" vertex="1">
          <mxGeometry x="148" y="434" width="112" height="27" as="geometry"/>
        </mxCell>
        <mxCell id="Eo95rkR2elM9zv1yrzYy-45" value="K8S" style="rounded=1;whiteSpace=wrap;html=1;shadow=0;glass=0;comic=0;fontSize=18;" parent="1" vertex="1">
          <mxGeometry x="284" y="451" width="78" height="27" as="geometry"/>
        </mxCell>
        <mxCell id="Eo95rkR2elM9zv1yrzYy-47" value="网络资源" style="rounded=1;whiteSpace=wrap;html=1;shadow=0;glass=0;comic=0;fontSize=18;" parent="1" vertex="1">
          <mxGeometry x="388" y="434" width="103" height="27" as="geometry"/>
        </mxCell>
        <mxCell id="HqxwIa4EOF607XyPmti0-3" value="已有" style="rounded=1;whiteSpace=wrap;html=1;fillColor=#dae8fc;fontSize=17;strokeColor=#6c8ebf;" parent="1" vertex="1">
          <mxGeometry x="132" y="562" width="80" height="30" as="geometry"/>
        </mxCell>
        <mxCell id="HqxwIa4EOF607XyPmti0-4" value="新增" style="rounded=1;whiteSpace=wrap;html=1;fontSize=18;fillColor=#FFFFFF;" parent="1" vertex="1">
          <mxGeometry x="238" y="562" width="83" height="30" as="geometry"/>
        </mxCell>
        <mxCell id="HqxwIa4EOF607XyPmti0-7" value="图例：" style="text;html=1;strokeColor=none;fillColor=none;align=center;verticalAlign=middle;whiteSpace=wrap;rounded=0;fontSize=17;" parent="1" vertex="1">
          <mxGeometry x="75" y="568" width="57" height="20" as="geometry"/>
        </mxCell>
        <mxCell id="-MIzdZnCXEipaB_-oH33-1" value="" style="rounded=0;whiteSpace=wrap;html=1;fontSize=18;fillColor=#f5f5f5;strokeColor=#666666;glass=0;shadow=0;comic=0;arcSize=12;fillOpacity=50;fontColor=#333333;" parent="1" vertex="1">
          <mxGeometry x="138" y="877" width="710" height="302" as="geometry"/>
        </mxCell>
        <mxCell id="-MIzdZnCXEipaB_-oH33-2" value="&lt;br&gt;&lt;br&gt;&lt;br&gt;&lt;br&gt;&lt;br&gt;区块链网络管理" style="rounded=0;whiteSpace=wrap;html=1;shadow=0;glass=0;comic=0;fontSize=18;fillColor=#b0e3e6;strokeColor=#0e8088;" parent="1" vertex="1">
          <mxGeometry x="154" y="893.5" width="380" height="145" as="geometry"/>
        </mxCell>
        <mxCell id="-MIzdZnCXEipaB_-oH33-3" value="网络管理" style="rounded=1;whiteSpace=wrap;html=1;shadow=0;glass=0;comic=0;fontSize=18;" parent="1" vertex="1">
          <mxGeometry x="164" y="903.5" width="103" height="27" as="geometry"/>
        </mxCell>
        <mxCell id="-MIzdZnCXEipaB_-oH33-4" value="通道管理" style="rounded=1;whiteSpace=wrap;html=1;shadow=0;glass=0;comic=0;fontSize=18;" parent="1" vertex="1">
          <mxGeometry x="277" y="903.5" width="103" height="27" as="geometry"/>
        </mxCell>
        <mxCell id="-MIzdZnCXEipaB_-oH33-5" value="合约管理" style="rounded=1;whiteSpace=wrap;html=1;shadow=0;glass=0;comic=0;fontSize=18;" parent="1" vertex="1">
          <mxGeometry x="163.5" y="940" width="103" height="27" as="geometry"/>
        </mxCell>
        <mxCell id="-MIzdZnCXEipaB_-oH33-6" value="合约市场" style="rounded=1;whiteSpace=wrap;html=1;shadow=0;glass=0;comic=0;fontSize=18;" parent="1" vertex="1">
          <mxGeometry x="277" y="940" width="103" height="27" as="geometry"/>
        </mxCell>
        <mxCell id="-MIzdZnCXEipaB_-oH33-7" value="联盟动态管理" style="rounded=1;whiteSpace=wrap;html=1;shadow=0;glass=0;comic=0;fontSize=18;" parent="1" vertex="1">
          <mxGeometry x="398" y="903.5" width="126" height="27" as="geometry"/>
        </mxCell>
        <mxCell id="-MIzdZnCXEipaB_-oH33-8" value="事件管理" style="rounded=1;whiteSpace=wrap;html=1;shadow=0;glass=0;comic=0;fontSize=18;" parent="1" vertex="1">
          <mxGeometry x="397.5" y="940.5" width="126" height="27" as="geometry"/>
        </mxCell>
        <mxCell id="-MIzdZnCXEipaB_-oH33-9" value="&lt;br&gt;&lt;br&gt;&lt;br&gt;&lt;br&gt;&lt;br&gt;平台管理" style="rounded=0;whiteSpace=wrap;html=1;shadow=0;glass=0;comic=0;fontSize=18;fillColor=#b0e3e6;strokeColor=#0e8088;" parent="1" vertex="1">
          <mxGeometry x="548" y="893.5" width="285" height="145" as="geometry"/>
        </mxCell>
        <mxCell id="-MIzdZnCXEipaB_-oH33-10" value="组织成员管理" style="rounded=1;whiteSpace=wrap;html=1;shadow=0;glass=0;comic=0;fontSize=18;" parent="1" vertex="1">
          <mxGeometry x="397.5" y="977.5" width="126" height="27" as="geometry"/>
        </mxCell>
        <mxCell id="-MIzdZnCXEipaB_-oH33-11" value="计费管理" style="rounded=1;whiteSpace=wrap;html=1;shadow=0;glass=0;comic=0;fontSize=18;" parent="1" vertex="1">
          <mxGeometry x="558.5" y="940.5" width="126" height="27" as="geometry"/>
        </mxCell>
        <mxCell id="-MIzdZnCXEipaB_-oH33-12" value="告警管理" style="rounded=1;whiteSpace=wrap;html=1;shadow=0;glass=0;comic=0;fontSize=18;" parent="1" vertex="1">
          <mxGeometry x="695" y="903.5" width="126" height="27" as="geometry"/>
        </mxCell>
        <mxCell id="-MIzdZnCXEipaB_-oH33-13" value="用户日志" style="rounded=1;whiteSpace=wrap;html=1;shadow=0;glass=0;comic=0;fontSize=18;" parent="1" vertex="1">
          <mxGeometry x="695" y="940.5" width="126" height="27" as="geometry"/>
        </mxCell>
        <mxCell id="-MIzdZnCXEipaB_-oH33-14" value="系统监控" style="rounded=1;whiteSpace=wrap;html=1;shadow=0;glass=0;comic=0;fontSize=18;" parent="1" vertex="1">
          <mxGeometry x="558.5" y="977.5" width="126" height="27" as="geometry"/>
        </mxCell>
        <mxCell id="-MIzdZnCXEipaB_-oH33-15" value="统计报表" style="rounded=1;whiteSpace=wrap;html=1;shadow=0;glass=0;comic=0;fontSize=18;" parent="1" vertex="1">
          <mxGeometry x="695" y="977.5" width="126" height="27" as="geometry"/>
        </mxCell>
        <mxCell id="-MIzdZnCXEipaB_-oH33-16" value="&lt;br&gt;&lt;br&gt;&lt;br&gt;区块链底层服务" style="rounded=0;whiteSpace=wrap;html=1;shadow=0;glass=0;comic=0;fontSize=18;fillColor=#b0e3e6;strokeColor=#0e8088;" parent="1" vertex="1">
          <mxGeometry x="547" y="1056.5" width="285" height="109" as="geometry"/>
        </mxCell>
        <mxCell id="-MIzdZnCXEipaB_-oH33-17" value="账本" style="rounded=1;whiteSpace=wrap;html=1;shadow=0;glass=0;comic=0;fontSize=18;fillColor=#FFFFFF;strokeColor=#000000;" parent="1" vertex="1">
          <mxGeometry x="557" y="1064.5" width="121" height="27" as="geometry"/>
        </mxCell>
        <mxCell id="-MIzdZnCXEipaB_-oH33-18" value="节点服务" style="rounded=1;whiteSpace=wrap;html=1;shadow=0;glass=0;comic=0;fontSize=18;fillColor=#FFFFFF;strokeColor=#000000;" parent="1" vertex="1">
          <mxGeometry x="695" y="1064.5" width="126" height="27" as="geometry"/>
        </mxCell>
        <mxCell id="-MIzdZnCXEipaB_-oH33-19" value="智能合约" style="rounded=1;whiteSpace=wrap;html=1;shadow=0;glass=0;comic=0;fontSize=18;fillColor=#FFFFFF;strokeColor=#000000;" parent="1" vertex="1">
          <mxGeometry x="557" y="1101.5" width="121" height="27" as="geometry"/>
        </mxCell>
        <mxCell id="-MIzdZnCXEipaB_-oH33-20" value="&lt;br&gt;&lt;br&gt;&lt;br&gt;&lt;br&gt;基础资源管理&lt;br&gt;" style="rounded=0;whiteSpace=wrap;html=1;shadow=0;glass=0;comic=0;fontSize=18;fillColor=#b0e3e6;strokeColor=#0e8088;" parent="1" vertex="1">
          <mxGeometry x="154" y="1056.5" width="380" height="110" as="geometry"/>
        </mxCell>
        <mxCell id="-MIzdZnCXEipaB_-oH33-21" value="共识管理" style="rounded=1;whiteSpace=wrap;html=1;shadow=0;glass=0;comic=0;fontSize=18;" parent="1" vertex="1">
          <mxGeometry x="164" y="977" width="103" height="27" as="geometry"/>
        </mxCell>
        <mxCell id="-MIzdZnCXEipaB_-oH33-22" value="安全/证书" style="rounded=1;whiteSpace=wrap;html=1;shadow=0;glass=0;comic=0;fontSize=18;" parent="1" vertex="1">
          <mxGeometry x="277" y="977" width="103" height="27" as="geometry"/>
        </mxCell>
        <mxCell id="-MIzdZnCXEipaB_-oH33-23" value="权限管理" style="rounded=1;whiteSpace=wrap;html=1;shadow=0;glass=0;comic=0;fontSize=18;" parent="1" vertex="1">
          <mxGeometry x="558.5" y="903.5" width="126" height="27" as="geometry"/>
        </mxCell>
        <mxCell id="-MIzdZnCXEipaB_-oH33-24" value="主机接入" style="rounded=1;whiteSpace=wrap;html=1;shadow=0;glass=0;comic=0;fontSize=18;" parent="1" vertex="1">
          <mxGeometry x="164" y="1074.5" width="112" height="27" as="geometry"/>
        </mxCell>
        <mxCell id="-MIzdZnCXEipaB_-oH33-26" value="K8S" style="rounded=1;whiteSpace=wrap;html=1;shadow=0;glass=0;comic=0;fontSize=18;" parent="1" vertex="1">
          <mxGeometry x="300" y="1091.5" width="78" height="27" as="geometry"/>
        </mxCell>
        <mxCell id="-MIzdZnCXEipaB_-oH33-28" value="网络资源" style="rounded=1;whiteSpace=wrap;html=1;shadow=0;glass=0;comic=0;fontSize=18;" parent="1" vertex="1">
          <mxGeometry x="404" y="1074.5" width="103" height="27" as="geometry"/>
        </mxCell>
        <mxCell id="-MIzdZnCXEipaB_-oH33-29" value="" style="rounded=0;whiteSpace=wrap;html=1;strokeColor=#666666;fillColor=#F5F5F5;" parent="1" vertex="1">
          <mxGeometry x="138" y="1234.5" width="710" height="127" as="geometry"/>
        </mxCell>
        <mxCell id="-MIzdZnCXEipaB_-oH33-32" value="" style="rounded=0;whiteSpace=wrap;html=1;strokeColor=#666666;fillColor=#F5F5F5;direction=south;" parent="1" vertex="1">
          <mxGeometry x="916" y="721" width="127" height="640" as="geometry"/>
        </mxCell>
        <mxCell id="-MIzdZnCXEipaB_-oH33-39" value="&lt;font style=&quot;font-size: 28px&quot;&gt;区块链服务平台可视化操作界面&lt;/font&gt;" style="rounded=0;whiteSpace=wrap;html=1;strokeColor=#666666;fillColor=#F5F5F5;" parent="1" vertex="1">
          <mxGeometry x="138" y="719.5" width="710" height="127" as="geometry"/>
        </mxCell>
        <mxCell id="-MIzdZnCXEipaB_-oH33-61" value="" style="strokeWidth=1;html=1;shape=mxgraph.flowchart.database;whiteSpace=wrap;rounded=0;fillColor=#dae8fc;fontSize=20;strokeColor=#6c8ebf;" parent="1" vertex="1">
          <mxGeometry x="188" y="1270" width="100" height="56" as="geometry"/>
        </mxCell>
        <mxCell id="-MIzdZnCXEipaB_-oH33-62" value="区块链网络&lt;br&gt;信息" style="text;html=1;resizable=0;points=[];autosize=1;align=center;verticalAlign=top;spacingTop=-4;fontSize=14;" parent="1" vertex="1">
          <mxGeometry x="201.5" y="1289" width="80" height="34" as="geometry"/>
        </mxCell>
        <mxCell id="-MIzdZnCXEipaB_-oH33-63" value="" style="strokeWidth=1;html=1;shape=mxgraph.flowchart.database;whiteSpace=wrap;rounded=0;fillColor=#dae8fc;fontSize=20;strokeColor=#6c8ebf;" parent="1" vertex="1">
          <mxGeometry x="351" y="1270" width="100" height="56" as="geometry"/>
        </mxCell>
        <mxCell id="-MIzdZnCXEipaB_-oH33-64" value="平台管理&lt;br&gt;信息" style="text;html=1;resizable=0;points=[];autosize=1;align=center;verticalAlign=top;spacingTop=-4;fontSize=14;" parent="1" vertex="1">
          <mxGeometry x="364.5" y="1289" width="66" height="34" as="geometry"/>
        </mxCell>
        <mxCell id="-MIzdZnCXEipaB_-oH33-65" value="" style="strokeWidth=1;html=1;shape=mxgraph.flowchart.database;whiteSpace=wrap;rounded=0;fillColor=#dae8fc;fontSize=20;strokeColor=#6c8ebf;" parent="1" vertex="1">
          <mxGeometry x="521.5" y="1270" width="100" height="56" as="geometry"/>
        </mxCell>
        <mxCell id="-MIzdZnCXEipaB_-oH33-66" value="监控信息" style="text;html=1;resizable=0;points=[];autosize=1;align=center;verticalAlign=top;spacingTop=-4;fontSize=14;" parent="1" vertex="1">
          <mxGeometry x="540" y="1294" width="66" height="17" as="geometry"/>
        </mxCell>
        <mxCell id="-MIzdZnCXEipaB_-oH33-69" value="" style="strokeWidth=1;html=1;shape=mxgraph.flowchart.database;whiteSpace=wrap;rounded=0;fillColor=#dae8fc;fontSize=20;strokeColor=#6c8ebf;" parent="1" vertex="1">
          <mxGeometry x="700" y="1270" width="100" height="56" as="geometry"/>
        </mxCell>
        <mxCell id="-MIzdZnCXEipaB_-oH33-70" value="日志信息" style="text;html=1;resizable=0;points=[];autosize=1;align=center;verticalAlign=top;spacingTop=-4;fontSize=14;" parent="1" vertex="1">
          <mxGeometry x="718.5" y="1295" width="66" height="17" as="geometry"/>
        </mxCell>
        <mxCell id="-MIzdZnCXEipaB_-oH33-72" value="展示层" style="rounded=0;whiteSpace=wrap;html=1;strokeWidth=1;fontSize=18;align=center;strokeColor=none;" parent="1" vertex="1">
          <mxGeometry x="93" y="720.5" width="32" height="127" as="geometry"/>
        </mxCell>
        <mxCell id="-MIzdZnCXEipaB_-oH33-73" value="业务处理层" style="rounded=0;whiteSpace=wrap;html=1;strokeWidth=1;fontSize=18;align=center;strokeColor=none;" parent="1" vertex="1">
          <mxGeometry x="93.5" y="877" width="32" height="320" as="geometry"/>
        </mxCell>
        <mxCell id="-MIzdZnCXEipaB_-oH33-74" value="数据存储层" style="rounded=0;whiteSpace=wrap;html=1;strokeWidth=1;fontSize=18;align=center;strokeColor=none;" parent="1" vertex="1">
          <mxGeometry x="93.5" y="1234.5" width="32" height="127" as="geometry"/>
        </mxCell>
        <mxCell id="-MIzdZnCXEipaB_-oH33-75" value="接口层" style="rounded=0;whiteSpace=wrap;html=1;strokeWidth=1;fontSize=18;align=center;strokeColor=none;" parent="1" vertex="1">
          <mxGeometry x="879" y="927" width="32" height="127" as="geometry"/>
        </mxCell>
        <mxCell id="-MIzdZnCXEipaB_-oH33-90" value="" style="shape=flexArrow;endArrow=classic;html=1;strokeColor=#007FFF;fillColor=#99CCFF;fontSize=18;width=20;" parent="1" source="-MIzdZnCXEipaB_-oH33-39" edge="1">
          <mxGeometry width="50" height="50" relative="1" as="geometry">
            <mxPoint x="848" y="833" as="sourcePoint"/>
            <mxPoint x="918.7106781186548" y="783" as="targetPoint"/>
          </mxGeometry>
        </mxCell>
        <mxCell id="-MIzdZnCXEipaB_-oH33-80" value="" style="rounded=0;whiteSpace=wrap;html=1;strokeColor=#d79b00;strokeWidth=1;fillColor=#ffe6cc;fontSize=18;align=center;" parent="1" vertex="1">
          <mxGeometry x="924" y="856" width="113" height="274" as="geometry"/>
        </mxCell>
        <mxCell id="-MIzdZnCXEipaB_-oH33-78" value="区块链代理" style="rounded=0;whiteSpace=wrap;html=1;strokeWidth=1;fontSize=18;align=center;strokeColor=none;fillColor=none;" parent="1" vertex="1">
          <mxGeometry x="924" y="881" width="27" height="224" as="geometry"/>
        </mxCell>
        <mxCell id="-MIzdZnCXEipaB_-oH33-82" value="REST" style="rounded=0;whiteSpace=wrap;html=1;strokeColor=#d6b656;strokeWidth=1;fillColor=#fff2cc;fontSize=18;align=center;" parent="1" vertex="1">
          <mxGeometry x="950.2851851851851" y="871" width="77.84444444444445" height="44" as="geometry"/>
        </mxCell>
        <mxCell id="-MIzdZnCXEipaB_-oH33-83" value="gRPC" style="rounded=0;whiteSpace=wrap;html=1;strokeColor=#d6b656;strokeWidth=1;fillColor=#fff2cc;fontSize=18;align=center;" parent="1" vertex="1">
          <mxGeometry x="950.2851851851851" y="969" width="77.84444444444445" height="44" as="geometry"/>
        </mxCell>
        <mxCell id="-MIzdZnCXEipaB_-oH33-84" value="MQ" style="rounded=0;whiteSpace=wrap;html=1;strokeColor=#d6b656;strokeWidth=1;fillColor=#fff2cc;fontSize=18;align=center;" parent="1" vertex="1">
          <mxGeometry x="950.2851851851851" y="1067" width="77.84444444444445" height="44" as="geometry"/>
        </mxCell>
        <mxCell id="CFUObo1nJz6rDOlNCSRg-3" value="共识机制" style="rounded=1;whiteSpace=wrap;html=1;shadow=0;glass=0;comic=0;fontSize=18;fillColor=#FFFFFF;strokeColor=#000000;" parent="1" vertex="1">
          <mxGeometry x="695" y="1097.5" width="126" height="27" as="geometry"/>
        </mxCell>
        <mxCell id="CFUObo1nJz6rDOlNCSRg-10" value="" style="shape=flexArrow;endArrow=classic;startArrow=classic;html=1;exitX=1;exitY=0.5;exitDx=0;exitDy=0;entryX=0.895;entryY=1;entryDx=0;entryDy=0;entryPerimeter=0;width=19;fillColor=#99CCFF;strokeColor=#007FFF;" parent="1" source="-MIzdZnCXEipaB_-oH33-29" target="-MIzdZnCXEipaB_-oH33-32" edge="1">
          <mxGeometry width="50" height="50" relative="1" as="geometry">
            <mxPoint x="858" y="1316" as="sourcePoint"/>
            <mxPoint x="908" y="1266" as="targetPoint"/>
          </mxGeometry>
        </mxCell>
        <mxCell id="CFUObo1nJz6rDOlNCSRg-11" value="" style="shape=flexArrow;endArrow=classic;html=1;strokeColor=#007FFF;fillColor=#99CCFF;fontSize=18;width=20;" parent="1" edge="1">
          <mxGeometry width="50" height="50" relative="1" as="geometry">
            <mxPoint x="919" y="1111" as="sourcePoint"/>
            <mxPoint x="848" y="1111" as="targetPoint"/>
          </mxGeometry>
        </mxCell>
        <mxCell id="h-NZQVWkjsbpDCVQzgBH-1" value="共识机制" style="rounded=1;whiteSpace=wrap;html=1;shadow=0;glass=0;comic=0;fontSize=18;fillColor=#FFFFFF;strokeColor=#000000;" vertex="1" parent="1">
          <mxGeometry x="678" y="461.5" width="126" height="27" as="geometry"/>
        </mxCell>
      </root>
    </mxGraphModel>
  </diagram>
</mxfile>
